HIERARCHY
ROOT Hips
{
	OFFSET 0.000000 0.000000 0.000000
	CHANNELS 6 Xposition Yposition Zposition Zrotation Yrotation Xrotation 
	JOINT Spine
	{
		OFFSET 0.000000 0.070852 0.000000
		CHANNELS 3 Zrotation Yrotation Xrotation
		JOINT Spine1
		{
			OFFSET 0.000000 0.152636 0.000000
			CHANNELS 3 Zrotation Yrotation Xrotation
			JOINT Neck
			{
				OFFSET 0.000000 0.169916 0.000000
				CHANNELS 3 Zrotation Yrotation Xrotation
				JOINT Head
				{
					OFFSET 0.000000 0.133927 0.017281
					CHANNELS 3 Zrotation Yrotation Xrotation
					End Site
					{
						OFFSET 0.000000 0.172810 0.000000
					}
				}
			}
			JOINT LeftShoulder
			{
				OFFSET 0.034198 0.131853 -0.003205
				CHANNELS 3 Zrotation Yrotation Xrotation
				JOINT LeftArm
				{
					OFFSET 0.115879 0.000000 0.000000
					CHANNELS 3 Zrotation Yrotation Xrotation
					JOINT LeftForeArm
					{
						OFFSET 0.252722 0.000000 0.000000
						CHANNELS 3 Zrotation Yrotation Xrotation
						JOINT LeftHand
						{
							OFFSET 0.231372 0.000000 0.000000
							CHANNELS 3 Zrotation Yrotation Xrotation
							End Site
							{
								OFFSET 0.129607 0.000000 0.000000
							}
						}
					}
				}
			}
			JOINT RightShoulder
			{
				OFFSET -0.034810 0.131853 -0.003205
				CHANNELS 3 Zrotation Yrotation Xrotation
				JOINT RightArm
				{
					OFFSET -0.115879 0.000000 0.000000
					CHANNELS 3 Zrotation Yrotation Xrotation
					JOINT RightForeArm
					{
						OFFSET -0.252722 0.000000 0.000000
						CHANNELS 3 Zrotation Yrotation Xrotation
						JOINT RightHand
						{
							OFFSET -0.231372 0.000000 0.000000
							CHANNELS 3 Zrotation Yrotation Xrotation
							End Site
							{
								OFFSET -0.129607 0.000000 0.000000
							}
						}
					}
				}
			}
		}
	}
	JOINT LeftUpLeg
	{
		OFFSET 0.086405 0.000000 0.000000
		CHANNELS 3 Zrotation Yrotation Xrotation
		JOINT LeftLeg
		{
			OFFSET 0.000000 -0.403038 0.000000
			CHANNELS 3 Zrotation Yrotation Xrotation
			JOINT LeftFoot
			{
				OFFSET 0.000000 -0.374775 0.000000
				CHANNELS 3 Zrotation Yrotation Xrotation
				JOINT LeftToeBase
				{
					OFFSET 0.000000 -0.056163 0.129607
					CHANNELS 3 Zrotation Yrotation Xrotation
					End Site
					{
						OFFSET 0.000000 0.000000 0.034562
					}
				}
			}
		}
	}
	JOINT RightUpLeg
	{
		OFFSET -0.086405 0.000000 0.000000
		CHANNELS 3 Zrotation Yrotation Xrotation
		JOINT RightLeg
		{
			OFFSET 0.000000 -0.403038 0.000000
			CHANNELS 3 Zrotation Yrotation Xrotation
			JOINT RightFoot
			{
				OFFSET 0.000000 -0.374775 0.000000
				CHANNELS 3 Zrotation Yrotation Xrotation
				JOINT RightToeBase
				{
					OFFSET 0.000000 -0.056163 0.129607
					CHANNELS 3 Zrotation Yrotation Xrotation
					End Site
					{
						OFFSET 0.000000 0.000000 0.034562
					}
				}
			}
		}
	}
}
MOTION
Frames: 14
Frame Time: 0.010000
0.000000 0.824096 0.000000 -1.283805 0.268708 2.457182 0.512400 0.772850 -13.385925 0.898174 0.174148 8.396268 -1.769254 -4.465309 6.763646 -0.163001 -4.838261 -2.777172 5.494905 11.180022 8.973625 -81.140346 -13.277455 48.887646 1.262013 -23.590249 -3.626027 1.086024 -2.042739 -3.381852 -3.472081 -3.960948 7.689405 80.665784 15.086498 29.317822 6.629511 20.482612 8.513029 4.969187 -1.718570 7.239368 2.317485 3.757737 5.937258 -6.289251 0.325941 -4.393582 5.362478 6.545261 -11.296057 0.000000 -0.000001 -0.000002 3.359826 -2.288832 -4.247080 0.614751 3.754835 15.611526 0.125981 -7.953156 -19.442982 0.000000 0.000000 -0.000001 
-0.000240 0.824099 0.000076 -1.254157 0.247067 2.444196 0.500106 0.796057 -13.415320 0.916772 0.180505 8.454976 -1.774685 -4.463176 6.741694 -0.231324 -4.830071 -2.760682 5.504482 11.151781 8.958971 -81.014827 -13.147470 48.615087 1.186950 -23.427995 -3.546726 1.091582 -2.028706 -3.319953 -3.473621 -3.962532 7.674639 80.647090 15.100964 29.428116 6.586694 20.510785 8.454313 4.948858 -1.699183 7.187879 2.295057 3.751901 5.946324 -6.268357 0.329329 -4.375493 5.347597 6.570138 -11.281765 0.000001 0.000002 0.000000 3.341314 -2.276424 -4.227836 0.648468 3.846088 15.614542 0.103081 -8.043319 -19.458818 -0.000001 0.000000 0.000001 
-0.000504 0.824086 0.000166 -1.233636 0.232722 2.427819 0.476156 0.808541 -13.414369 0.977993 0.180945 8.467392 -1.831623 -4.451291 6.734743 -0.248268 -4.827314 -2.740730 5.499876 11.136044 8.957822 -80.881065 -13.017827 48.344076 1.079235 -23.283266 -3.437481 1.125672 -2.019187 -3.234991 -3.510174 -3.954276 7.662664 80.630800 15.085682 29.476559 6.573347 20.546464 8.441190 4.902729 -1.699605 7.175721 2.291197 3.772996 5.956020 -6.267466 0.308769 -4.349740 5.521535 6.614240 -11.326990 0.000000 0.000001 -0.000002 3.336649 -2.261053 -4.197666 0.681601 3.954153 15.602249 0.074979 -8.155353 -19.475379 0.000000 0.000000 -0.000002 
-0.000778 0.824084 0.000268 -1.213592 0.228520 2.415546 0.470991 0.809644 -13.427327 0.993776 0.180128 8.490060 -1.843349 -4.441590 6.718282 -0.300023 -4.814535 -2.702109 5.518059 11.127271 8.946137 -80.746223 -12.874096 48.097793 1.006734 -23.157480 -3.334990 1.066551 -2.002936 -3.147369 -3.517980 -3.929791 7.640799 80.589901 15.081324 29.391574 6.690609 20.556580 8.530166 4.892139 -1.743834 7.241045 2.288601 3.779681 5.960931 -6.260530 0.296904 -4.319684 5.292367 6.622896 -11.309698 0.000001 0.000001 0.000000 3.336638 -2.271896 -4.167729 0.685637 3.985957 15.581880 0.049468 -8.176244 -19.488980 0.000000 0.000000 -0.000002 
-0.001037 0.824070 0.000332 -1.189731 0.230965 2.408036 0.475874 0.811939 -13.427909 0.991429 0.180840 8.488997 -1.873911 -4.432330 6.730692 -0.312354 -4.809841 -2.698087 5.533995 11.109101 8.958158 -80.605747 -12.744328 47.856721 0.941584 -23.069220 -3.286312 1.105837 -2.009946 -3.113540 -3.521913 -3.921346 7.652225 80.573925 15.101610 29.414917 6.691834 20.555406 8.525180 4.925608 -1.755221 7.234907 2.276265 3.785076 5.950102 -6.246803 0.284022 -4.278952 5.397051 6.638567 -11.304092 0.000000 0.000000 -0.000002 3.330259 -2.259319 -4.148894 0.688566 3.973324 15.572191 0.029968 -8.188831 -19.508463 0.000000 0.000000 -0.000002 
-0.001310 0.824053 0.000418 -1.165930 0.235988 2.390062 0.434118 0.825024 -13.437292 1.055463 0.181652 8.528651 -1.897317 -4.437975 6.732709 -0.344912 -4.816468 -2.719476 5.529643 11.074067 8.946623 -80.486478 -12.609453 47.594442 0.884901 -22.998758 -3.215383 1.164403 -1.963905 -3.055328 -3.543008 -3.931684 7.631846 80.530744 15.093318 29.416464 6.709265 20.613718 8.538236 5.027967 -1.771818 7.238952 2.268238 3.794387 5.954213 -6.232089 0.268985 -4.239918 5.307716 6.638765 -11.348617 0.000001 0.000001 -0.000001 3.328683 -2.259055 -4.117846 0.691253 4.013712 15.564025 0.008904 -8.224134 -19.527477 0.000000 0.000000 -0.000001 
-0.001586 0.824040 0.000526 -1.149070 0.249542 2.368262 0.425917 0.828030 -13.450012 1.068531 0.181572 8.574648 -1.895533 -4.434835 6.724915 -0.367273 -4.810522 -2.723697 5.556991 11.035789 8.942747 -80.367660 -12.487040 47.309176 0.780225 -22.930084 -3.112893 1.277758 -1.929270 -2.976180 -3.545888 -3.915997 7.617992 80.513047 15.081585 29.432296 6.680210 20.642553 8.515571 5.014442 -1.764372 7.220414 2.270757 3.779384 5.971034 -6.235240 0.271650 -4.222757 5.329211 6.672554 -11.343120 0.000000 0.000000 0.000002 3.333710 -2.270161 -4.078704 0.666021 3.906959 15.544682 -0.012771 -8.160974 -19.548314 0.000000 0.000000 -0.000001 
-0.001847 0.824034 0.000594 -1.130135 0.261926 2.360252 0.400354 0.832538 -13.448836 1.112296 0.180846 8.584125 -1.904000 -4.442364 6.738475 -0.403235 -4.815913 -2.749863 5.554591 11.010340 8.950881 -80.211433 -12.382965 46.958988 0.607842 -22.918947 -2.971315 1.263368 -1.869455 -2.868707 -3.553416 -3.920445 7.602791 80.471889 15.076295 29.465716 6.689826 20.641697 8.495610 4.970463 -1.755648 7.199804 2.278842 3.773781 5.987255 -6.200316 -0.433399 -4.203127 5.299275 7.382595 -11.301440 0.000000 0.000001 -0.000002 3.332322 -2.294443 -4.063577 0.679037 3.953205 15.544216 -0.037795 -8.182627 -19.555262 0.000000 0.000001 0.000000 
-0.002135 0.824039 0.000669 -1.120779 0.282239 2.352785 0.380511 0.830481 -13.448061 1.156038 0.177576 8.588078 -1.931613 -4.434026 6.737098 -0.398274 -4.813338 -2.738384 5.570540 10.985243 8.955998 -80.102840 -12.276381 46.726103 0.508642 -22.863652 -2.907722 1.302680 -1.857945 -2.826002 -3.565992 -3.925696 7.599246 80.422786 15.067599 29.456437 6.711003 20.688409 8.458079 4.967608 -1.806764 7.153401 2.284238 3.774770 5.972632 -6.234114 0.260111 -4.182924 5.275761 6.678032 -11.359324 0.000000 -0.000001 0.000000 3.343794 -2.281736 -4.043701 0.676116 3.925851 15.528828 -0.042803 -8.190416 -19.559235 0.000000 0.000000 0.000001 
-0.002408 0.824049 0.000761 -1.102066 0.295557 2.352996 0.347210 0.834817 -13.475473 1.213018 0.175359 8.648715 -1.979062 -4.425992 6.648951 -0.379556 -4.816150 -2.668220 5.587592 10.998526 8.932217 -79.995333 -12.166815 46.573851 0.460590 -22.903760 -2.871018 1.186726 -1.756984 -2.795921 -3.610019 -3.959440 7.568321 80.424637 15.058113 29.565492 6.650238 20.726853 8.428848 5.037107 -1.797215 7.132318 2.285485 3.777594 5.975659 -6.231430 0.272596 -4.179532 5.236138 6.644995 -11.356005 0.000000 0.000002 -0.000002 3.341969 -2.255408 -4.032773 0.682052 3.908525 15.522418 -0.069999 -8.213513 -19.564939 0.000000 0.000000 -0.000001 
-0.002683 0.824061 0.000837 -1.087904 0.317060 2.356457 0.315826 0.836210 -13.482630 1.266064 0.173385 8.627864 -2.023973 -4.424465 6.686889 -0.350289 -4.826502 -2.669552 5.602871 10.939394 8.956706 -79.906246 -12.059672 46.388063 0.406949 -22.875733 -2.850708 1.208576 -1.742252 -2.786745 -3.607640 -3.943312 7.567166 80.401667 14.990042 29.735194 6.462891 20.788079 8.307126 5.168952 -1.824578 7.038092 2.292177 3.774721 5.970054 -6.225056 0.250517 -4.171280 5.242721 6.648639 -11.349754 0.000000 0.000000 0.000000 3.347140 -2.297518 -4.023858 0.702726 4.015582 15.510472 -0.098601 -8.277949 -19.560514 0.000000 0.000001 -0.000001 
-0.002953 0.824072 0.000915 -1.071828 0.339197 2.369921 0.312630 0.822515 -13.492801 1.285811 0.167723 8.611091 -2.082063 -4.410234 6.673279 -0.319306 -4.826808 -2.613123 5.603801 10.942924 8.937467 -79.792046 -11.911414 46.330099 0.439656 -22.877657 -2.865290 1.119177 -1.699251 -2.792917 -3.639381 -3.909632 7.579991 80.401176 14.959940 29.734867 6.449492 20.810282 8.330679 5.159231 -1.774120 7.065236 2.299933 3.777551 5.952360 -6.234641 0.238941 -4.156385 5.225675 6.655940 -11.344748 0.000000 0.000001 -0.000001 3.345709 -2.303512 -4.023305 0.720780 4.039090 15.498244 -0.101973 -8.313883 -19.569489 0.000000 0.000000 0.000000 
-0.003215 0.824077 0.000974 -1.056133 0.359146 2.371900 0.301823 0.830011 -13.497504 1.313715 0.168444 8.617418 -2.120035 -4.415453 6.653135 -0.305689 -4.840895 -2.576374 5.595845 10.906306 8.912615 -79.693507 -11.778271 46.242467 0.460024 -22.906554 -2.899645 1.112323 -1.698910 -2.822922 -3.663643 -3.897184 7.558140 80.304604 14.982481 29.267139 6.824948 20.730169 8.610989 5.065047 -1.788350 7.282146 2.315248 3.785928 5.964785 -6.215084 -0.435506 -4.150697 5.214907 7.333592 -11.282089 -0.000000 0.000002 0.000002 3.346427 -2.317057 -4.014156 0.735022 4.072312 15.489660 -0.143438 -8.356073 -19.563535 0.000000 -0.000001 -0.000001 
-0.003486 0.824085 0.001063 -1.040566 0.387359 2.370278 0.286462 0.845570 -13.492368 1.336894 0.172641 8.596951 -2.117971 -4.434182 6.661002 -0.352217 -4.854748 -2.555625 5.611141 10.867181 8.935652 -79.606702 -11.732682 46.092968 0.361228 -22.890744 -2.852010 1.126481 -1.678033 -2.795353 -3.675865 -3.902079 7.547616 80.279202 14.922782 29.252560 6.815363 20.750262 8.613826 5.041810 -1.786770 7.285957 2.322833 3.788244 5.962453 -6.212081 -0.470778 -4.134151 5.198627 7.346925 -11.276993 0.000000 -0.000001 0.000000 3.342848 -2.333485 -3.991112 0.719147 3.930058 15.460039 -0.146665 -8.244698 -19.572250 0.000000 0.000000 -0.000002 
